<?xml version="1.0" encoding="UTF-8"?>
<!DOCTYPE svg PUBLIC "-//W3C//DTD SVG 1.1//EN" "http://www.w3.org/Graphics/SVG/1.1/DTD/svg11.dtd">
<svg xmlns="http://www.w3.org/2000/svg" version="1.1" width="833px" height="833px" style="shape-rendering:geometricPrecision; text-rendering:geometricPrecision; image-rendering:optimizeQuality; fill-rule:evenodd; clip-rule:evenodd" xmlns:xlink="http://www.w3.org/1999/xlink">
<g><path style="opacity:1" fill="#505d75" d="M 385.5,-0.5 C 405.167,-0.5 424.833,-0.5 444.5,-0.5C 567.663,10.8236 667.83,64.4903 745,160.5C 817.939,258.596 844.606,368.263 825,489.5C 799.803,613.952 733.303,709.119 625.5,775C 512.959,837.352 395.626,848.019 273.5,807C 164.156,765.323 84.6556,691.49 35,585.5C 15.1424,540.402 3.30911,493.402 -0.5,444.5C -0.5,424.833 -0.5,405.167 -0.5,385.5C 11.6607,257.646 68.6607,155.146 170.5,78C 234.9,32.1425 306.566,5.97583 385.5,-0.5 Z M 660.5,170.5 C 665.496,170.4 669.33,172.4 672,176.5C 672.667,189.167 672.667,201.833 672,214.5C 670.301,218.205 667.467,220.372 663.5,221C 501.5,221.667 339.5,221.667 177.5,221C 173.261,219.78 170.427,216.947 169,212.5C 168.333,201.5 168.333,190.5 169,179.5C 170.123,176.751 171.623,174.251 173.5,172C 336.001,171.833 498.334,171.333 660.5,170.5 Z M 219.5,275.5 C 354.223,275.005 488.889,275.505 623.5,277C 625.709,278.873 627.542,281.04 629,283.5C 629.667,354.5 629.667,425.5 629,496.5C 626.778,500.388 623.612,503.221 619.5,505C 605.833,505.333 592.167,505.667 578.5,506C 578,506.5 577.5,507 577,507.5C 565.351,545.758 553.851,584.091 542.5,622.5C 542.901,624.434 543.901,625.934 545.5,627C 586.546,627.023 627.546,627.689 668.5,629C 671.688,630.934 673.188,633.768 673,637.5C 673.875,648.217 673.541,658.884 672,669.5C 670.062,672.106 667.562,673.939 664.5,675C 499.111,675.996 333.778,675.662 168.5,674C 165.533,671.9 163.7,669.066 163,665.5C 162.333,655.5 162.333,645.5 163,635.5C 163.942,632.399 165.776,630.066 168.5,628.5C 207.144,627.678 245.811,627.178 284.5,627C 286.396,625.192 286.896,623.025 286,620.5C 278.461,593.814 270.795,567.147 263,540.5C 262.242,538.231 262.409,536.064 263.5,534C 284.167,533.333 304.833,533.333 325.5,534C 328.071,534.901 330.404,536.234 332.5,538C 344.564,566.51 356.064,595.344 367,624.5C 367.833,625.333 368.667,626.167 369.5,627C 399.167,627.667 428.833,627.667 458.5,627C 459.416,626.626 460.25,626.126 461,625.5C 475.125,586.921 488.959,548.254 502.5,509.5C 502.43,508.228 502.097,507.062 501.5,506C 407.167,505.667 312.833,505.333 218.5,505C 214.333,503.5 211.5,500.667 210,496.5C 209.333,425.5 209.333,354.5 210,283.5C 212.192,279.458 215.359,276.791 219.5,275.5 Z"/></g>
<g><path style="opacity:1" fill="#505d75" d="M 290.5,327.5 C 375.834,327.333 461.167,327.5 546.5,328C 547.667,328.5 548.5,329.333 549,330.5C 549.667,370.167 549.667,409.833 549,449.5C 548.426,451.492 547.259,452.992 545.5,454C 460.833,454.667 376.167,454.667 291.5,454C 290.809,452.933 290.309,451.766 290,450.5C 289.173,409.429 289.34,368.429 290.5,327.5 Z"/></g>
</svg>
